<svg width="272" height="59" viewBox="0 0 272 59" fill="none" xmlns="http://www.w3.org/2000/svg">
<path d="M146.958 28.25V30.2031C146.958 32.8887 146.608 35.2975 145.908 37.4297C145.208 39.5618 144.207 41.3766 142.905 42.874C141.619 44.3714 140.073 45.5189 138.267 46.3164C136.46 47.0977 134.458 47.4883 132.261 47.4883C130.08 47.4883 128.086 47.0977 126.279 46.3164C124.489 45.5189 122.935 44.3714 121.616 42.874C120.298 41.3766 119.272 39.5618 118.54 37.4297C117.824 35.2975 117.466 32.8887 117.466 30.2031V28.25C117.466 25.5645 117.824 23.1637 118.54 21.0479C119.256 18.9157 120.265 17.1009 121.567 15.6035C122.886 14.0898 124.44 12.9424 126.23 12.1611C128.037 11.3636 130.031 10.9648 132.212 10.9648C134.409 10.9648 136.411 11.3636 138.218 12.1611C140.024 12.9424 141.579 14.0898 142.881 15.6035C144.183 17.1009 145.184 18.9157 145.884 21.0479C146.6 23.1637 146.958 25.5645 146.958 28.25ZM140.83 30.2031V28.2012C140.83 26.2155 140.635 24.4658 140.244 22.9521C139.87 21.4222 139.308 20.1445 138.56 19.1191C137.827 18.0775 136.924 17.2962 135.85 16.7754C134.775 16.2383 133.563 15.9697 132.212 15.9697C130.861 15.9697 129.657 16.2383 128.599 16.7754C127.541 17.2962 126.637 18.0775 125.889 19.1191C125.156 20.1445 124.595 21.4222 124.204 22.9521C123.813 24.4658 123.618 26.2155 123.618 28.2012V30.2031C123.618 32.1888 123.813 33.9466 124.204 35.4766C124.595 37.0065 125.164 38.3005 125.913 39.3584C126.678 40.4001 127.59 41.1895 128.647 41.7266C129.705 42.2474 130.91 42.5078 132.261 42.5078C133.628 42.5078 134.84 42.2474 135.898 41.7266C136.956 41.1895 137.852 40.4001 138.584 39.3584C139.316 38.3005 139.87 37.0065 140.244 35.4766C140.635 33.9466 140.83 32.1888 140.83 30.2031ZM158.335 26.2236V47H152.451V20.584H157.993L158.335 26.2236ZM157.285 32.8154L155.381 32.791C155.397 30.9193 155.658 29.2021 156.162 27.6396C156.683 26.0771 157.399 24.7344 158.311 23.6113C159.238 22.4883 160.345 21.6257 161.631 21.0234C162.917 20.4049 164.349 20.0957 165.928 20.0957C167.197 20.0957 168.345 20.2747 169.37 20.6328C170.412 20.9746 171.299 21.5361 172.031 22.3174C172.78 23.0986 173.35 24.1159 173.74 25.3691C174.131 26.6061 174.326 28.1279 174.326 29.9346V47H168.418V29.9102C168.418 28.6406 168.231 27.6396 167.856 26.9072C167.498 26.1585 166.969 25.6296 166.27 25.3203C165.586 24.9948 164.731 24.832 163.706 24.832C162.697 24.832 161.794 25.0436 160.996 25.4668C160.199 25.89 159.523 26.4678 158.97 27.2002C158.433 27.9326 158.018 28.779 157.725 29.7393C157.432 30.6995 157.285 31.7249 157.285 32.8154ZM186.631 9.5V47H180.723V9.5H186.631ZM199.375 20.584V47H193.467V20.584H199.375ZM193.076 13.6504C193.076 12.7552 193.369 12.0146 193.955 11.4287C194.557 10.8265 195.387 10.5254 196.445 10.5254C197.487 10.5254 198.309 10.8265 198.911 11.4287C199.513 12.0146 199.814 12.7552 199.814 13.6504C199.814 14.5293 199.513 15.2617 198.911 15.8477C198.309 16.4336 197.487 16.7266 196.445 16.7266C195.387 16.7266 194.557 16.4336 193.955 15.8477C193.369 15.2617 193.076 14.5293 193.076 13.6504ZM211.655 26.2236V47H205.771V20.584H211.313L211.655 26.2236ZM210.605 32.8154L208.701 32.791C208.717 30.9193 208.978 29.2021 209.482 27.6396C210.003 26.0771 210.719 24.7344 211.631 23.6113C212.559 22.4883 213.665 21.6257 214.951 21.0234C216.237 20.4049 217.669 20.0957 219.248 20.0957C220.518 20.0957 221.665 20.2747 222.69 20.6328C223.732 20.9746 224.619 21.5361 225.352 22.3174C226.1 23.0986 226.67 24.1159 227.061 25.3691C227.451 26.6061 227.646 28.1279 227.646 29.9346V47H221.738V29.9102C221.738 28.6406 221.551 27.6396 221.177 26.9072C220.819 26.1585 220.29 25.6296 219.59 25.3203C218.906 24.9948 218.052 24.832 217.026 24.832C216.017 24.832 215.114 25.0436 214.316 25.4668C213.519 25.89 212.843 26.4678 212.29 27.2002C211.753 27.9326 211.338 28.779 211.045 29.7393C210.752 30.6995 210.605 31.7249 210.605 32.8154ZM245.298 47.4883C243.345 47.4883 241.579 47.1709 240 46.5361C238.438 45.8851 237.103 44.9818 235.996 43.8262C234.906 42.6706 234.067 41.3115 233.481 39.749C232.896 38.1865 232.603 36.502 232.603 34.6953V33.7188C232.603 31.6517 232.904 29.7799 233.506 28.1035C234.108 26.4271 234.946 24.9948 236.021 23.8066C237.095 22.6022 238.364 21.6826 239.829 21.0479C241.294 20.4131 242.881 20.0957 244.59 20.0957C246.478 20.0957 248.13 20.4131 249.546 21.0479C250.962 21.6826 252.134 22.5778 253.062 23.7334C254.006 24.8727 254.705 26.2318 255.161 27.8105C255.633 29.3893 255.869 31.1309 255.869 33.0352V35.5498H235.459V31.3262H250.059V30.8623C250.026 29.8044 249.814 28.8115 249.424 27.8838C249.049 26.9561 248.472 26.2074 247.69 25.6377C246.909 25.068 245.868 24.7832 244.565 24.7832C243.589 24.7832 242.718 24.9948 241.953 25.418C241.204 25.8249 240.578 26.4189 240.073 27.2002C239.569 27.9814 239.178 28.9255 238.901 30.0322C238.641 31.1227 238.511 32.3516 238.511 33.7188V34.6953C238.511 35.8509 238.665 36.9251 238.975 37.918C239.3 38.8945 239.772 39.749 240.391 40.4814C241.009 41.2139 241.758 41.7917 242.637 42.2148C243.516 42.6217 244.517 42.8252 245.64 42.8252C247.056 42.8252 248.317 42.5404 249.424 41.9707C250.531 41.401 251.491 40.5954 252.305 39.5537L255.405 42.5566C254.836 43.3867 254.095 44.1842 253.184 44.9492C252.272 45.6979 251.157 46.3083 249.839 46.7803C248.537 47.2523 247.023 47.4883 245.298 47.4883ZM260.703 44.0703C260.703 43.1589 261.012 42.3939 261.631 41.7754C262.249 41.1406 263.088 40.8232 264.146 40.8232C265.22 40.8232 266.058 41.1406 266.66 41.7754C267.279 42.3939 267.588 43.1589 267.588 44.0703C267.588 44.9818 267.279 45.7467 266.66 46.3652C266.058 46.9837 265.22 47.293 264.146 47.293C263.088 47.293 262.249 46.9837 261.631 46.3652C261.012 45.7467 260.703 44.9818 260.703 44.0703Z" fill="white"/>
<path d="M31.958 28.25V30.2031C31.958 32.8887 31.6081 35.2975 30.9082 37.4297C30.2083 39.5618 29.2074 41.3766 27.9053 42.874C26.6195 44.3714 25.0732 45.5189 23.2666 46.3164C21.46 47.0977 19.458 47.4883 17.2607 47.4883C15.0798 47.4883 13.0859 47.0977 11.2793 46.3164C9.48893 45.5189 7.93457 44.3714 6.61621 42.874C5.29785 41.3766 4.27246 39.5618 3.54004 37.4297C2.82389 35.2975 2.46582 32.8887 2.46582 30.2031V28.25C2.46582 25.5645 2.82389 23.1637 3.54004 21.0479C4.25618 18.9157 5.2653 17.1009 6.56738 15.6035C7.88574 14.0898 9.4401 12.9424 11.2305 12.1611C13.0371 11.3636 15.0309 10.9648 17.2119 10.9648C19.4092 10.9648 21.4111 11.3636 23.2178 12.1611C25.0244 12.9424 26.5788 14.0898 27.8809 15.6035C29.1829 17.1009 30.1839 18.9157 30.8838 21.0479C31.5999 23.1637 31.958 25.5645 31.958 28.25ZM25.8301 30.2031V28.2012C25.8301 26.2155 25.6348 24.4658 25.2441 22.9521C24.8698 21.4222 24.3083 20.1445 23.5596 19.1191C22.8271 18.0775 21.9238 17.2962 20.8496 16.7754C19.7754 16.2383 18.5628 15.9697 17.2119 15.9697C15.861 15.9697 14.6566 16.2383 13.5986 16.7754C12.5407 17.2962 11.6374 18.0775 10.8887 19.1191C10.1562 20.1445 9.59473 21.4222 9.2041 22.9521C8.81348 24.4658 8.61816 26.2155 8.61816 28.2012V30.2031C8.61816 32.1888 8.81348 33.9466 9.2041 35.4766C9.59473 37.0065 10.1644 38.3005 10.9131 39.3584C11.6781 40.4001 12.5895 41.1895 13.6475 41.7266C14.7054 42.2474 15.9098 42.5078 17.2607 42.5078C18.6279 42.5078 19.8405 42.2474 20.8984 41.7266C21.9564 41.1895 22.8516 40.4001 23.584 39.3584C24.3164 38.3005 24.8698 37.0065 25.2441 35.4766C25.6348 33.9466 25.8301 32.1888 25.8301 30.2031ZM38.0859 11.4531H50.6592C53.361 11.4531 55.6641 11.86 57.5684 12.6738C59.4727 13.4876 60.9294 14.6921 61.9385 16.2871C62.9639 17.8659 63.4766 19.819 63.4766 22.1465C63.4766 23.9206 63.151 25.4831 62.5 26.834C61.849 28.1849 60.9294 29.3242 59.7412 30.252C58.5531 31.1634 57.137 31.8714 55.4932 32.376L53.6377 33.2793H42.334L42.2852 28.4209H50.7568C52.2217 28.4209 53.4424 28.1605 54.4189 27.6396C55.3955 27.1188 56.1279 26.4108 56.6162 25.5156C57.1208 24.6042 57.373 23.5788 57.373 22.4395C57.373 21.2025 57.1289 20.1283 56.6406 19.2168C56.1686 18.2891 55.4362 17.5811 54.4434 17.0928C53.4505 16.5882 52.1891 16.3359 50.6592 16.3359H44.2139V47H38.0859V11.4531ZM58.374 47L50.0244 31.0332L56.4453 31.0088L64.917 46.6826V47H58.374ZM72.0703 11.4531H77.5391L87.8174 38.8701L98.0713 11.4531H103.54L89.9658 47H85.6201L72.0703 11.4531ZM69.5801 11.4531H74.7803L75.6836 35.1836V47H69.5801V11.4531ZM100.83 11.4531H106.055V47H99.9268V35.1836L100.83 11.4531Z" fill="white"/>
</svg>
